<svg width="200" height="56" viewBox="0 0 200 56" fill="none" xmlns="http://www.w3.org/2000/svg">
<path d="M3.55682 15L0.329545 3.36364H2.17614L4.44318 12.375H4.55114L6.90909 3.36364H8.73864L11.0966 12.3807H11.2045L13.4659 3.36364H15.3182L12.0852 15H10.3182L7.86932 6.28409H7.77841L5.32955 15H3.55682ZM16.719 15V3.36364H18.4747V8.42045H24.2759V3.36364H26.0372V15H24.2759V9.92614H18.4747V15H16.719ZM28.394 15V3.36364H35.6895V4.875H30.1497V8.42045H35.3088V9.92614H30.1497V13.4886H35.7577V15H28.394ZM47.2267 3.36364V15H45.6131L39.6983 6.46591H39.5903V15H37.8347V3.36364H39.4597L45.3801 11.9091H45.4881V3.36364H47.2267ZM55.3778 3.36364V15H53.6222V3.36364H55.3778ZM57.1608 4.875V3.36364H66.1665V4.875H62.5358V15H60.7858V4.875H57.1608ZM69.2804 3.36364V4.45455C69.2804 4.77652 69.2198 5.11553 69.0986 5.47159C68.9812 5.82386 68.8145 6.16288 68.5986 6.48864C68.3827 6.81439 68.1289 7.0947 67.8372 7.32955L66.9963 6.72727C67.2198 6.40151 67.413 6.05492 67.5759 5.6875C67.7425 5.32008 67.8259 4.91477 67.8259 4.47159V3.36364H69.2804ZM77.2906 6.42045C77.23 5.88258 76.98 5.46591 76.5406 5.17045C76.1012 4.87121 75.5482 4.72159 74.8815 4.72159C74.4043 4.72159 73.9914 4.79735 73.6429 4.94886C73.2944 5.09659 73.0236 5.30114 72.8304 5.5625C72.641 5.82008 72.5463 6.11364 72.5463 6.44318C72.5463 6.7197 72.6107 6.95833 72.7395 7.15909C72.8721 7.35985 73.0444 7.52841 73.2565 7.66477C73.4724 7.79735 73.7035 7.90909 73.9497 8C74.1959 8.08712 74.4327 8.15909 74.6599 8.21591L75.7963 8.51136C76.1675 8.60227 76.5482 8.72538 76.9384 8.88068C77.3285 9.03598 77.6902 9.24053 78.0236 9.49432C78.3569 9.74811 78.6259 10.0625 78.8304 10.4375C79.0387 10.8125 79.1429 11.2614 79.1429 11.7841C79.1429 12.4432 78.9724 13.0284 78.6315 13.5398C78.2944 14.0511 77.8039 14.4545 77.1599 14.75C76.5198 15.0455 75.7452 15.1932 74.8361 15.1932C73.9649 15.1932 73.2111 15.0549 72.5747 14.7784C71.9384 14.5019 71.4402 14.1098 71.0804 13.6023C70.7206 13.0909 70.5217 12.4848 70.4838 11.7841H72.2452C72.2793 12.2045 72.4156 12.5549 72.6543 12.8352C72.8967 13.1117 73.2054 13.3182 73.5804 13.4545C73.9592 13.5871 74.374 13.6534 74.8247 13.6534C75.3209 13.6534 75.7622 13.5758 76.1486 13.4205C76.5387 13.2614 76.8456 13.0417 77.069 12.7614C77.2925 12.4773 77.4043 12.1458 77.4043 11.767C77.4043 11.4223 77.3058 11.1402 77.1088 10.9205C76.9156 10.7008 76.6524 10.5189 76.319 10.375C75.9895 10.2311 75.6164 10.1042 75.1997 9.99432L73.8247 9.61932C72.8929 9.36553 72.1543 8.99242 71.6088 8.5C71.0671 8.00758 70.7963 7.35606 70.7963 6.54545C70.7963 5.875 70.9781 5.28977 71.3418 4.78977C71.7054 4.28977 72.1978 3.90151 72.819 3.625C73.4402 3.3447 74.141 3.20455 74.9213 3.20455C75.7092 3.20455 76.4043 3.3428 77.0065 3.61932C77.6126 3.89583 78.0899 4.27652 78.4384 4.76136C78.7868 5.24242 78.9687 5.79545 78.9838 6.42045H77.2906ZM88.8423 15H85.0753V3.36364H88.9616C90.1018 3.36364 91.081 3.59659 91.8991 4.0625C92.7173 4.52462 93.3442 5.18939 93.7798 6.05682C94.2192 6.92045 94.4389 7.95644 94.4389 9.16477C94.4389 10.3769 94.2173 11.4186 93.7741 12.2898C93.3348 13.161 92.6984 13.8314 91.8651 14.3011C91.0317 14.767 90.0241 15 88.8423 15ZM86.831 13.4659H88.7457C89.6321 13.4659 90.3688 13.2992 90.956 12.9659C91.5431 12.6288 91.9825 12.142 92.2741 11.5057C92.5658 10.8655 92.7116 10.0852 92.7116 9.16477C92.7116 8.25189 92.5658 7.47727 92.2741 6.84091C91.9863 6.20455 91.5563 5.72159 90.9844 5.39205C90.4124 5.0625 89.7022 4.89773 88.8537 4.89773H86.831V13.4659ZM96.827 15H94.9634L99.1509 3.36364H101.179L105.367 15H103.503L100.213 5.47727H100.122L96.827 15ZM97.1395 10.4432H103.185V11.9205H97.1395V10.4432ZM106.847 15V3.36364H110.995C111.896 3.36364 112.645 3.51894 113.239 3.82955C113.838 4.14015 114.285 4.57008 114.58 5.11932C114.876 5.66477 115.023 6.29545 115.023 7.01136C115.023 7.72348 114.874 8.35038 114.574 8.89205C114.279 9.42992 113.832 9.84848 113.234 10.1477C112.639 10.447 111.891 10.5966 110.989 10.5966H107.847V9.08523H110.83C111.398 9.08523 111.86 9.00379 112.216 8.84091C112.576 8.67803 112.84 8.44129 113.006 8.13068C113.173 7.82008 113.256 7.44697 113.256 7.01136C113.256 6.57197 113.171 6.19129 113.001 5.86932C112.834 5.54735 112.571 5.30114 112.211 5.13068C111.855 4.95644 111.387 4.86932 110.807 4.86932H108.603V15H106.847ZM112.591 9.75L115.466 15H113.466L110.648 9.75H112.591ZM116.96 15V3.36364H118.715V8.92045H118.857L123.738 3.36364H125.948L121.255 8.60227L125.965 15H123.852L120.09 9.80114L118.715 11.3807V15H116.96ZM141.527 9.18182C141.527 10.4242 141.3 11.4924 140.845 12.3864C140.391 13.2765 139.768 13.9621 138.976 14.4432C138.188 14.9205 137.292 15.1591 136.288 15.1591C135.281 15.1591 134.381 14.9205 133.589 14.4432C132.802 13.9621 132.18 13.2746 131.726 12.3807C131.271 11.4867 131.044 10.4205 131.044 9.18182C131.044 7.93939 131.271 6.87311 131.726 5.98295C132.18 5.08901 132.802 4.40341 133.589 3.92614C134.381 3.44508 135.281 3.20455 136.288 3.20455C137.292 3.20455 138.188 3.44508 138.976 3.92614C139.768 4.40341 140.391 5.08901 140.845 5.98295C141.3 6.87311 141.527 7.93939 141.527 9.18182ZM139.788 9.18182C139.788 8.23485 139.635 7.4375 139.328 6.78977C139.025 6.13826 138.608 5.64583 138.078 5.3125C137.552 4.97538 136.955 4.80682 136.288 4.80682C135.618 4.80682 135.019 4.97538 134.493 5.3125C133.966 5.64583 133.55 6.13826 133.243 6.78977C132.94 7.4375 132.788 8.23485 132.788 9.18182C132.788 10.1288 132.94 10.928 133.243 11.5795C133.55 12.2273 133.966 12.7197 134.493 13.0568C135.019 13.3902 135.618 13.5568 136.288 13.5568C136.955 13.5568 137.552 13.3902 138.078 13.0568C138.608 12.7197 139.025 12.2273 139.328 11.5795C139.635 10.928 139.788 10.1288 139.788 9.18182ZM150.999 3.36364H152.76V11.017C152.76 11.8314 152.569 12.553 152.186 13.1818C151.804 13.8068 151.266 14.2992 150.573 14.6591C149.88 15.0152 149.067 15.1932 148.135 15.1932C147.207 15.1932 146.397 15.0152 145.703 14.6591C145.01 14.2992 144.472 13.8068 144.09 13.1818C143.707 12.553 143.516 11.8314 143.516 11.017V3.36364H145.272V10.875C145.272 11.4015 145.387 11.8693 145.618 12.2784C145.853 12.6875 146.184 13.0095 146.613 13.2443C147.041 13.4754 147.548 13.5909 148.135 13.5909C148.726 13.5909 149.236 13.4754 149.664 13.2443C150.095 13.0095 150.425 12.6875 150.652 12.2784C150.883 11.8693 150.999 11.4015 150.999 10.875V3.36364ZM154.539 4.875V3.36364H163.545V4.875H159.914V15H158.164V4.875H154.539ZM171.681 6.42045C171.621 5.88258 171.371 5.46591 170.931 5.17045C170.492 4.87121 169.939 4.72159 169.272 4.72159C168.795 4.72159 168.382 4.79735 168.034 4.94886C167.685 5.09659 167.414 5.30114 167.221 5.5625C167.032 5.82008 166.937 6.11364 166.937 6.44318C166.937 6.7197 167.001 6.95833 167.13 7.15909C167.263 7.35985 167.435 7.52841 167.647 7.66477C167.863 7.79735 168.094 7.90909 168.34 8C168.587 8.08712 168.823 8.15909 169.051 8.21591L170.187 8.51136C170.558 8.60227 170.939 8.72538 171.329 8.88068C171.719 9.03598 172.081 9.24053 172.414 9.49432C172.748 9.74811 173.016 10.0625 173.221 10.4375C173.429 10.8125 173.534 11.2614 173.534 11.7841C173.534 12.4432 173.363 13.0284 173.022 13.5398C172.685 14.0511 172.195 14.4545 171.551 14.75C170.91 15.0455 170.136 15.1932 169.227 15.1932C168.355 15.1932 167.602 15.0549 166.965 14.7784C166.329 14.5019 165.831 14.1098 165.471 13.6023C165.111 13.0909 164.912 12.4848 164.874 11.7841H166.636C166.67 12.2045 166.806 12.5549 167.045 12.8352C167.287 13.1117 167.596 13.3182 167.971 13.4545C168.35 13.5871 168.765 13.6534 169.215 13.6534C169.712 13.6534 170.153 13.5758 170.539 13.4205C170.929 13.2614 171.236 13.0417 171.46 12.7614C171.683 12.4773 171.795 12.1458 171.795 11.767C171.795 11.4223 171.696 11.1402 171.499 10.9205C171.306 10.7008 171.043 10.5189 170.71 10.375C170.38 10.2311 170.007 10.1042 169.59 9.99432L168.215 9.61932C167.284 9.36553 166.545 8.99242 165.999 8.5C165.458 8.00758 165.187 7.35606 165.187 6.54545C165.187 5.875 165.369 5.28977 165.732 4.78977C166.096 4.28977 166.588 3.90151 167.21 3.625C167.831 3.3447 168.532 3.20455 169.312 3.20455C170.1 3.20455 170.795 3.3428 171.397 3.61932C172.003 3.89583 172.48 4.27652 172.829 4.76136C173.177 5.24242 173.359 5.79545 173.374 6.42045H171.681ZM177.187 3.36364V15H175.432V3.36364H177.187ZM183.311 15H179.544V3.36364H183.43C184.571 3.36364 185.55 3.59659 186.368 4.0625C187.186 4.52462 187.813 5.18939 188.249 6.05682C188.688 6.92045 188.908 7.95644 188.908 9.16477C188.908 10.3769 188.686 11.4186 188.243 12.2898C187.804 13.161 187.167 13.8314 186.334 14.3011C185.5 14.767 184.493 15 183.311 15ZM181.3 13.4659H183.214C184.101 13.4659 184.838 13.2992 185.425 12.9659C186.012 12.6288 186.451 12.142 186.743 11.5057C187.035 10.8655 187.18 10.0852 187.18 9.16477C187.18 8.25189 187.035 7.47727 186.743 6.84091C186.455 6.20455 186.025 5.72159 185.453 5.39205C184.881 5.0625 184.171 4.89773 183.322 4.89773H181.3V13.4659ZM190.891 15V3.36364H198.186V4.875H192.647V8.42045H197.806V9.92614H192.647V13.4886H198.255V15H190.891Z" fill="black"/>
<path d="M64.4432 32.5455V50H62.3295V34.7614H62.2273L57.9659 37.5909V35.4432L62.3295 32.5455H64.4432ZM69.4659 47.6136L69.3295 48.5341C69.233 49.1818 69.0852 49.875 68.8864 50.6136C68.6932 51.3523 68.4915 52.0483 68.2812 52.7017C68.071 53.3551 67.8977 53.875 67.7614 54.2614H66.2273C66.3011 53.8977 66.3977 53.4176 66.517 52.821C66.6364 52.2244 66.7557 51.5568 66.875 50.8182C67 50.0852 67.1023 49.3352 67.1818 48.5682L67.2841 47.6136H69.4659ZM75.2088 32.5455V50H73.0952V34.7614H72.9929L68.7315 37.5909V35.4432L73.0952 32.5455H75.2088ZM83.7855 32.3068C84.5014 32.3125 85.2173 32.4489 85.9332 32.7159C86.6491 32.983 87.3026 33.4261 87.8935 34.0455C88.4844 34.6591 88.9588 35.4972 89.3168 36.5597C89.6747 37.6222 89.8537 38.9545 89.8537 40.5568C89.8537 42.108 89.706 43.4858 89.4105 44.6903C89.1207 45.8892 88.7003 46.9006 88.1491 47.7244C87.6037 48.5483 86.9389 49.1733 86.1548 49.5994C85.3764 50.0256 84.4957 50.2386 83.5128 50.2386C82.5355 50.2386 81.6634 50.0455 80.8963 49.6591C80.1349 49.267 79.5099 48.7244 79.0213 48.0312C78.5384 47.3324 78.2287 46.5227 78.0923 45.6023H80.1719C80.3594 46.4034 80.7315 47.0653 81.2884 47.5881C81.8509 48.1051 82.5923 48.3636 83.5128 48.3636C84.8594 48.3636 85.9219 47.7756 86.7003 46.5994C87.4844 45.4233 87.8764 43.7614 87.8764 41.6136H87.7401C87.4219 42.0909 87.044 42.5028 86.6065 42.8494C86.169 43.196 85.6832 43.4631 85.1491 43.6506C84.6151 43.8381 84.0469 43.9318 83.4446 43.9318C82.4446 43.9318 81.527 43.6847 80.6918 43.1903C79.8622 42.6903 79.1974 42.0057 78.6974 41.1364C78.2031 40.2614 77.956 39.2614 77.956 38.1364C77.956 37.0682 78.1946 36.0909 78.6719 35.2045C79.1548 34.3125 79.831 33.6023 80.7003 33.0739C81.5753 32.5455 82.6037 32.2898 83.7855 32.3068ZM83.7855 34.1818C83.0696 34.1818 82.4247 34.3608 81.8509 34.7188C81.2827 35.071 80.831 35.5483 80.4957 36.1506C80.1662 36.7472 80.0014 37.4091 80.0014 38.1364C80.0014 38.8636 80.1605 39.5256 80.4787 40.1222C80.8026 40.7131 81.2429 41.1847 81.7997 41.5369C82.3622 41.8835 83.0014 42.0568 83.7173 42.0568C84.2571 42.0568 84.7599 41.9517 85.2259 41.7415C85.6918 41.5256 86.098 41.233 86.4446 40.8636C86.7969 40.4886 87.0724 40.0653 87.2713 39.5938C87.4702 39.1165 87.5696 38.6193 87.5696 38.1023C87.5696 37.4205 87.4048 36.7812 87.0753 36.1847C86.7514 35.5881 86.3026 35.1051 85.7287 34.7358C85.1605 34.3665 84.5128 34.1818 83.7855 34.1818ZM96.7621 32.3068C97.478 32.3125 98.1939 32.4489 98.9098 32.7159C99.6257 32.983 100.279 33.4261 100.87 34.0455C101.461 34.6591 101.935 35.4972 102.293 36.5597C102.651 37.6222 102.83 38.9545 102.83 40.5568C102.83 42.108 102.683 43.4858 102.387 44.6903C102.097 45.8892 101.677 46.9006 101.126 47.7244C100.58 48.5483 99.9155 49.1733 99.1314 49.5994C98.353 50.0256 97.4723 50.2386 96.4893 50.2386C95.5121 50.2386 94.6399 50.0455 93.8729 49.6591C93.1115 49.267 92.4865 48.7244 91.9979 48.0312C91.5149 47.3324 91.2053 46.5227 91.0689 45.6023H93.1484C93.3359 46.4034 93.7081 47.0653 94.2649 47.5881C94.8274 48.1051 95.5689 48.3636 96.4893 48.3636C97.8359 48.3636 98.8984 47.7756 99.6768 46.5994C100.461 45.4233 100.853 43.7614 100.853 41.6136H100.717C100.398 42.0909 100.021 42.5028 99.5831 42.8494C99.1456 43.196 98.6598 43.4631 98.1257 43.6506C97.5916 43.8381 97.0234 43.9318 96.4212 43.9318C95.4212 43.9318 94.5036 43.6847 93.6683 43.1903C92.8388 42.6903 92.174 42.0057 91.674 41.1364C91.1797 40.2614 90.9325 39.2614 90.9325 38.1364C90.9325 37.0682 91.1712 36.0909 91.6484 35.2045C92.1314 34.3125 92.8075 33.6023 93.6768 33.0739C94.5518 32.5455 95.5803 32.2898 96.7621 32.3068ZM96.7621 34.1818C96.0462 34.1818 95.4013 34.3608 94.8274 34.7188C94.2592 35.071 93.8075 35.5483 93.4723 36.1506C93.1428 36.7472 92.978 37.4091 92.978 38.1364C92.978 38.8636 93.1371 39.5256 93.4553 40.1222C93.7791 40.7131 94.2195 41.1847 94.7763 41.5369C95.3388 41.8835 95.978 42.0568 96.6939 42.0568C97.2337 42.0568 97.7365 41.9517 98.2024 41.7415C98.6683 41.5256 99.0746 41.233 99.4212 40.8636C99.7734 40.4886 100.049 40.0653 100.248 39.5938C100.447 39.1165 100.546 38.6193 100.546 38.1023C100.546 37.4205 100.381 36.7812 100.052 36.1847C99.728 35.5881 99.2791 35.1051 98.7053 34.7358C98.1371 34.3665 97.4893 34.1818 96.7621 34.1818ZM111.352 32.5455V50H109.239V32.5455H111.352ZM127.431 32.5455V50H125.386L115.874 36.2955H115.704V50H113.59V32.5455H115.636L125.181 46.2841H125.352V32.5455H127.431ZM129.661 50V32.5455H135.558C136.922 32.5455 138.041 32.7784 138.916 33.2443C139.791 33.7045 140.439 34.3381 140.859 35.1449C141.28 35.9517 141.49 36.8693 141.49 37.8977C141.49 38.9261 141.28 39.8381 140.859 40.6335C140.439 41.429 139.794 42.054 138.925 42.5085C138.055 42.9574 136.945 43.1818 135.592 43.1818H130.82V41.2727H135.524C136.456 41.2727 137.206 41.1364 137.774 40.8636C138.348 40.5909 138.763 40.2045 139.018 39.7045C139.28 39.1989 139.411 38.5966 139.411 37.8977C139.411 37.1989 139.28 36.5881 139.018 36.0653C138.757 35.5426 138.339 35.1392 137.766 34.8551C137.192 34.5653 136.433 34.4205 135.49 34.4205H131.774V50H129.661ZM137.876 42.1591L142.172 50H139.717L135.49 42.1591H137.876Z" fill="black"/>
</svg>
