<svg width="294" height="100" viewBox="0 0 294 100" fill="none" xmlns="http://www.w3.org/2000/svg">
<path d="M5.33523 20L0.494318 2.54545H3.2642L6.66477 16.0625H6.8267L10.3636 2.54545H13.108L16.6449 16.071H16.8068L20.1989 2.54545H22.9773L18.1278 20H15.4773L11.804 6.92614H11.6676L7.99432 20H5.33523ZM24.3786 20V2.54545H35.3217V4.8125H27.0121V10.1307H34.7507V12.3892H27.0121V17.733H35.424V20H24.3786ZM44.6655 20H41.87L48.1513 2.54545H51.1939L57.4751 20H54.6797L49.745 5.71591H49.6087L44.6655 20ZM45.1342 13.1648H54.2024V15.3807H45.1342V13.1648ZM58.9957 20V2.54545H65.2173C66.5696 2.54545 67.6918 2.77841 68.5838 3.24432C69.4815 3.71023 70.152 4.35511 70.5952 5.17898C71.0384 5.99716 71.2599 6.94318 71.2599 8.01705C71.2599 9.08523 71.0355 10.0256 70.5866 10.8381C70.1435 11.6449 69.473 12.2727 68.5753 12.7216C67.6832 13.1705 66.5611 13.3949 65.2088 13.3949H60.4957V11.1278H64.9702C65.8224 11.1278 66.5156 11.0057 67.0497 10.7614C67.5895 10.517 67.9844 10.1619 68.2344 9.69602C68.4844 9.23011 68.6094 8.67045 68.6094 8.01705C68.6094 7.35795 68.4815 6.78693 68.2259 6.30398C67.9759 5.82102 67.581 5.4517 67.0412 5.19602C66.5071 4.93466 65.8054 4.80398 64.9361 4.80398H61.6293V20H58.9957ZM67.6122 12.125L71.9247 20H68.9247L64.6974 12.125H67.6122ZM73.4645 20V2.54545H84.4077V4.8125H76.098V10.1307H83.8366V12.3892H76.098V17.733H84.5099V20H73.4645ZM1.91761 25.5455H5.11364L10.6705 39.1136H10.875L16.4318 25.5455H19.6278V43H17.1222V30.3693H16.9602L11.8125 42.9744H9.73295L4.58523 30.3608H4.4233V43H1.91761V25.5455ZM23.9311 43H21.1357L27.4169 25.5455H30.4595L36.7408 43H33.9453L29.0107 28.7159H28.8743L23.9311 43ZM24.3999 36.1648H33.468V38.3807H24.3999V36.1648ZM40.0938 25.5455L44.2699 32.3722H44.4062L48.5824 25.5455H51.6335L46.196 34.2727L51.6676 43H48.5994L44.4062 36.267H44.2699L40.0767 43H37.0085L42.5739 34.2727L37.0426 25.5455H40.0938ZM55.8793 25.5455V43H53.2457V25.5455H55.8793ZM58.7145 25.5455H61.9105L67.4673 39.1136H67.6719L73.2287 25.5455H76.4247V43H73.919V30.3693H73.7571L68.6094 42.9744H66.5298L61.3821 30.3608H61.2202V43H58.7145V25.5455ZM90.478 25.5455H93.12V37.0256C93.12 38.2472 92.8331 39.3295 92.2592 40.2727C91.6854 41.2102 90.8786 41.9489 89.8388 42.4886C88.799 43.0227 87.5803 43.2898 86.1825 43.2898C84.7905 43.2898 83.5746 43.0227 82.5348 42.4886C81.495 41.9489 80.6882 41.2102 80.1143 40.2727C79.5405 39.3295 79.2536 38.2472 79.2536 37.0256V25.5455H81.8871V36.8125C81.8871 37.6023 82.0604 38.304 82.407 38.9176C82.7592 39.5312 83.2564 40.0142 83.8984 40.3665C84.5405 40.7131 85.3018 40.8864 86.1825 40.8864C87.0689 40.8864 87.8331 40.7131 88.4751 40.3665C89.1229 40.0142 89.6172 39.5312 89.9581 38.9176C90.3047 38.304 90.478 37.6023 90.478 36.8125V25.5455ZM95.9489 25.5455H99.1449L104.702 39.1136H104.906L110.463 25.5455H113.659V43H111.153V30.3693H110.991L105.844 42.9744H103.764L98.6165 30.3608H98.4545V43H95.9489V25.5455ZM121.839 43V25.5455H132.783V27.8125H124.473V33.1307H132.212V35.3892H124.473V40.733H132.885V43H121.839ZM135.3 43V25.5455H146.124V27.8125H137.934V33.1307H145.349V35.3892H137.934V43H135.3ZM148.363 43V25.5455H159.187V27.8125H150.996V33.1307H158.411V35.3892H150.996V43H148.363ZM176.587 34.2727C176.587 36.1364 176.246 37.7386 175.565 39.0795C174.883 40.4148 173.948 41.4432 172.761 42.1648C171.579 42.8807 170.235 43.2386 168.729 43.2386C167.218 43.2386 165.869 42.8807 164.681 42.1648C163.499 41.4432 162.567 40.4119 161.886 39.071C161.204 37.7301 160.863 36.1307 160.863 34.2727C160.863 32.4091 161.204 30.8097 161.886 29.4744C162.567 28.1335 163.499 27.1051 164.681 26.3892C165.869 25.6676 167.218 25.3068 168.729 25.3068C170.235 25.3068 171.579 25.6676 172.761 26.3892C173.948 27.1051 174.883 28.1335 175.565 29.4744C176.246 30.8097 176.587 32.4091 176.587 34.2727ZM173.979 34.2727C173.979 32.8523 173.749 31.6562 173.289 30.6847C172.835 29.7074 172.21 28.9688 171.414 28.4688C170.624 27.9631 169.729 27.7102 168.729 27.7102C167.724 27.7102 166.826 27.9631 166.036 28.4688C165.246 28.9688 164.621 29.7074 164.161 30.6847C163.707 31.6562 163.479 32.8523 163.479 34.2727C163.479 35.6932 163.707 36.892 164.161 37.8693C164.621 38.8409 165.246 39.5795 166.036 40.0852C166.826 40.5852 167.724 40.8352 168.729 40.8352C169.729 40.8352 170.624 40.5852 171.414 40.0852C172.21 39.5795 172.835 38.8409 173.289 37.8693C173.749 36.892 173.979 35.6932 173.979 34.2727ZM178.871 43V25.5455H185.092C186.445 25.5455 187.567 25.7784 188.459 26.2443C189.357 26.7102 190.027 27.3551 190.47 28.179C190.913 28.9972 191.135 29.9432 191.135 31.017C191.135 32.0852 190.911 33.0256 190.462 33.8381C190.018 34.6449 189.348 35.2727 188.45 35.7216C187.558 36.1705 186.436 36.3949 185.084 36.3949H180.371V34.1278H184.845C185.697 34.1278 186.391 34.0057 186.925 33.7614C187.464 33.517 187.859 33.1619 188.109 32.696C188.359 32.2301 188.484 31.6705 188.484 31.017C188.484 30.358 188.357 29.7869 188.101 29.304C187.851 28.821 187.456 28.4517 186.916 28.196C186.382 27.9347 185.68 27.804 184.811 27.804H181.504V43H178.871ZM187.487 35.125L191.8 43H188.8L184.572 35.125H187.487ZM192.479 27.8125V25.5455H205.987V27.8125H200.541V43H197.916V27.8125H192.479Z" fill="black"/>
<path d="M15.3516 96H0.976562L7.61719 56H21.7188C25.7422 56 29.082 56.8203 31.7383 58.4609C34.4076 60.1016 36.2891 62.4518 37.3828 65.5117C38.4766 68.5586 38.6719 72.1979 37.9688 76.4297C37.2917 80.5182 35.944 84.0273 33.9258 86.957C31.9076 89.8737 29.3229 92.1133 26.1719 93.6758C23.0208 95.2253 19.4141 96 15.3516 96ZM10.6445 88.7539H15.8398C18.3529 88.7539 20.5534 88.2852 22.4414 87.3477C24.3424 86.4102 25.8984 84.9648 27.1094 83.0117C28.3333 81.0586 29.1992 78.5586 29.707 75.5117C30.1888 72.6211 30.1563 70.2773 29.6094 68.4805C29.0755 66.6706 28.0404 65.349 26.5039 64.5156C24.9674 63.6693 22.9492 63.2461 20.4492 63.2461H14.8828L10.6445 88.7539ZM38.9912 96L45.6318 56H72.585L71.4131 62.9727H52.917L51.3545 72.5039H68.4639L67.292 79.4766H50.1826L48.6201 89.0273H67.1943L66.0225 96H38.9912ZM77.5625 96H68.5L88.9492 56H99.8477L106.996 96H97.9336L93.0703 65.1406H92.7578L77.5625 96ZM79.6328 80.2773H101.039L99.9063 86.8789H78.5L79.6328 80.2773ZM124.186 96H109.811L116.451 56H130.553C134.576 56 137.916 56.8203 140.572 58.4609C143.242 60.1016 145.123 62.4518 146.217 65.5117C147.311 68.5586 147.506 72.1979 146.803 76.4297C146.126 80.5182 144.778 84.0273 142.76 86.957C140.742 89.8737 138.157 92.1133 135.006 93.6758C131.855 95.2253 128.248 96 124.186 96ZM119.479 88.7539H124.674C127.187 88.7539 129.387 88.2852 131.275 87.3477C133.176 86.4102 134.732 84.9648 135.943 83.0117C137.167 81.0586 138.033 78.5586 138.541 75.5117C139.023 72.6211 138.99 70.2773 138.443 68.4805C137.91 66.6706 136.874 65.349 135.338 64.5156C133.801 63.6693 131.783 63.2461 129.283 63.2461H123.717L119.479 88.7539ZM147.825 96L154.466 56H170.247C173.268 56 175.748 56.5794 177.688 57.7383C179.642 58.8841 181.009 60.4792 181.79 62.5234C182.584 64.5547 182.767 66.8984 182.337 69.5547C181.894 72.224 180.931 74.5742 179.446 76.6055C177.975 78.6237 176.061 80.1992 173.704 81.332C171.347 82.4648 168.626 83.0312 165.54 83.0312H155.481L156.595 76.2539H165.286C166.927 76.2539 168.326 75.974 169.485 75.4141C170.657 74.8411 171.588 74.0534 172.278 73.0508C172.968 72.0352 173.418 70.8698 173.626 69.5547C173.847 68.2135 173.776 67.0482 173.411 66.0586C173.047 65.069 172.376 64.3008 171.399 63.7539C170.436 63.194 169.14 62.9141 167.513 62.9141H161.81L156.282 96H147.825ZM221.436 76.5469C220.706 80.8177 219.294 84.444 217.197 87.4258C215.114 90.4076 212.568 92.6732 209.561 94.2227C206.566 95.7721 203.337 96.5469 199.873 96.5469C196.24 96.5469 193.109 95.7201 190.479 94.0664C187.861 92.4128 185.967 90.0234 184.795 86.8984C183.623 83.7604 183.402 79.9779 184.131 75.5508C184.834 71.2669 186.234 67.6341 188.33 64.6523C190.426 61.6576 192.985 59.3789 196.006 57.8164C199.027 56.2409 202.275 55.4531 205.752 55.4531C209.359 55.4531 212.471 56.2865 215.088 57.9531C217.718 59.6198 219.613 62.0286 220.771 65.1797C221.943 68.3177 222.165 72.1068 221.436 76.5469ZM213.018 75.5508C213.473 72.8034 213.454 70.4987 212.959 68.6367C212.477 66.7617 211.592 65.3424 210.303 64.3789C209.014 63.4154 207.386 62.9336 205.42 62.9336C203.285 62.9336 201.325 63.4674 199.541 64.5352C197.77 65.6029 196.273 67.1523 195.049 69.1836C193.838 71.2018 192.998 73.6562 192.529 76.5469C192.061 79.3073 192.074 81.612 192.568 83.4609C193.076 85.3099 193.981 86.7096 195.283 87.6602C196.598 88.5977 198.232 89.0664 200.186 89.0664C202.308 89.0664 204.248 88.5456 206.006 87.5039C207.777 86.4492 209.268 84.9193 210.479 82.9141C211.689 80.8958 212.536 78.4414 213.018 75.5508ZM262.458 76.5469C261.729 80.8177 260.316 84.444 258.22 87.4258C256.136 90.4076 253.591 92.6732 250.583 94.2227C247.588 95.7721 244.359 96.5469 240.896 96.5469C237.263 96.5469 234.131 95.7201 231.501 94.0664C228.884 92.4128 226.989 90.0234 225.817 86.8984C224.646 83.7604 224.424 79.9779 225.153 75.5508C225.856 71.2669 227.256 67.6341 229.353 64.6523C231.449 61.6576 234.007 59.3789 237.028 57.8164C240.049 56.2409 243.298 55.4531 246.774 55.4531C250.381 55.4531 253.493 56.2865 256.11 57.9531C258.741 59.6198 260.635 62.0286 261.794 65.1797C262.966 68.3177 263.187 72.1068 262.458 76.5469ZM254.04 75.5508C254.496 72.8034 254.476 70.4987 253.981 68.6367C253.5 66.7617 252.614 65.3424 251.325 64.3789C250.036 63.4154 248.409 62.9336 246.442 62.9336C244.307 62.9336 242.347 63.4674 240.563 64.5352C238.793 65.6029 237.295 67.1523 236.071 69.1836C234.86 71.2018 234.021 73.6562 233.552 76.5469C233.083 79.3073 233.096 81.612 233.591 83.4609C234.099 85.3099 235.004 86.7096 236.306 87.6602C237.621 88.5977 239.255 89.0664 241.208 89.0664C243.33 89.0664 245.271 88.5456 247.028 87.5039C248.799 86.4492 250.29 84.9193 251.501 82.9141C252.712 80.8958 253.558 78.4414 254.04 75.5508ZM263.48 96L270.121 56H278.578L273.109 89.0273H290.258L289.086 96H263.48Z" fill="black"/>
</svg>
