<svg width="189" height="56" viewBox="0 0 189 56" fill="none" xmlns="http://www.w3.org/2000/svg">
<path d="M5.04545 15H1.27841V3.36364H5.16477C6.30492 3.36364 7.28409 3.59659 8.10227 4.0625C8.92045 4.52462 9.54735 5.18939 9.98295 6.05682C10.4223 6.92045 10.642 7.95644 10.642 9.16477C10.642 10.3769 10.4205 11.4186 9.97727 12.2898C9.53788 13.161 8.90152 13.8314 8.06818 14.3011C7.23485 14.767 6.22727 15 5.04545 15ZM3.03409 13.4659H4.94886C5.83523 13.4659 6.57197 13.2992 7.15909 12.9659C7.74621 12.6288 8.18561 12.142 8.47727 11.5057C8.76894 10.8655 8.91477 10.0852 8.91477 9.16477C8.91477 8.25189 8.76894 7.47727 8.47727 6.84091C8.18939 6.20455 7.75947 5.72159 7.1875 5.39205C6.61553 5.0625 5.9053 4.89773 5.05682 4.89773H3.03409V13.4659ZM12.6253 15V3.36364H19.9207V4.875H14.381V8.42045H19.5401V9.92614H14.381V13.4886H19.9889V15H12.6253ZM23.0489 15H21.1852L25.3727 3.36364H27.4011L31.5886 15H29.725L26.4352 5.47727H26.3443L23.0489 15ZM23.3614 10.4432H29.4068V11.9205H23.3614V10.4432ZM36.8361 15H33.069V3.36364H36.9554C38.0955 3.36364 39.0747 3.59659 39.8929 4.0625C40.7111 4.52462 41.338 5.18939 41.7736 6.05682C42.213 6.92045 42.4327 7.95644 42.4327 9.16477C42.4327 10.3769 42.2111 11.4186 41.7679 12.2898C41.3285 13.161 40.6921 13.8314 39.8588 14.3011C39.0255 14.767 38.0179 15 36.8361 15ZM34.8247 13.4659H36.7395C37.6259 13.4659 38.3626 13.2992 38.9497 12.9659C39.5368 12.6288 39.9762 12.142 40.2679 11.5057C40.5596 10.8655 40.7054 10.0852 40.7054 9.16477C40.7054 8.25189 40.5596 7.47727 40.2679 6.84091C39.98 6.20455 39.5501 5.72159 38.9781 5.39205C38.4062 5.0625 37.6959 4.89773 36.8474 4.89773H34.8247V13.4659ZM44.4159 15V3.36364H48.5636C49.4689 3.36364 50.2189 3.52841 50.8136 3.85795C51.4083 4.1875 51.8534 4.63826 52.1489 5.21023C52.4443 5.77841 52.592 6.41856 52.592 7.13068C52.592 7.84659 52.4424 8.49053 52.1432 9.0625C51.8477 9.63068 51.4008 10.0814 50.8023 10.4148C50.2076 10.7443 49.4595 10.9091 48.558 10.9091H45.7057V9.42045H48.3989C48.9708 9.42045 49.4348 9.32197 49.7909 9.125C50.147 8.92424 50.4083 8.65152 50.575 8.30682C50.7417 7.96212 50.825 7.57008 50.825 7.13068C50.825 6.69129 50.7417 6.30114 50.575 5.96023C50.4083 5.61932 50.1451 5.35227 49.7852 5.15909C49.4292 4.96591 48.9595 4.86932 48.3761 4.86932H46.1716V15H44.4159ZM64.5582 9.18182C64.5582 10.4242 64.331 11.4924 63.8764 12.3864C63.4219 13.2765 62.7988 13.9621 62.0071 14.4432C61.2192 14.9205 60.3234 15.1591 59.3196 15.1591C58.312 15.1591 57.4124 14.9205 56.6207 14.4432C55.8329 13.9621 55.2116 13.2746 54.7571 12.3807C54.3026 11.4867 54.0753 10.4205 54.0753 9.18182C54.0753 7.93939 54.3026 6.87311 54.7571 5.98295C55.2116 5.08901 55.8329 4.40341 56.6207 3.92614C57.4124 3.44508 58.312 3.20455 59.3196 3.20455C60.3234 3.20455 61.2192 3.44508 62.0071 3.92614C62.7988 4.40341 63.4219 5.08901 63.8764 5.98295C64.331 6.87311 64.5582 7.93939 64.5582 9.18182ZM62.8196 9.18182C62.8196 8.23485 62.6662 7.4375 62.3594 6.78977C62.0563 6.13826 61.6397 5.64583 61.1094 5.3125C60.5829 4.97538 59.9863 4.80682 59.3196 4.80682C58.6491 4.80682 58.0507 4.97538 57.5241 5.3125C56.9976 5.64583 56.581 6.13826 56.2741 6.78977C55.9711 7.4375 55.8196 8.23485 55.8196 9.18182C55.8196 10.1288 55.9711 10.928 56.2741 11.5795C56.581 12.2273 56.9976 12.7197 57.5241 13.0568C58.0507 13.3902 58.6491 13.5568 59.3196 13.5568C59.9863 13.5568 60.5829 13.3902 61.1094 13.0568C61.6397 12.7197 62.0563 12.2273 62.3594 11.5795C62.6662 10.928 62.8196 10.1288 62.8196 9.18182ZM76.6551 9.18182C76.6551 10.4242 76.4278 11.4924 75.9733 12.3864C75.5188 13.2765 74.8956 13.9621 74.104 14.4432C73.3161 14.9205 72.4203 15.1591 71.4165 15.1591C70.4089 15.1591 69.5093 14.9205 68.7176 14.4432C67.9297 13.9621 67.3085 13.2746 66.854 12.3807C66.3994 11.4867 66.1722 10.4205 66.1722 9.18182C66.1722 7.93939 66.3994 6.87311 66.854 5.98295C67.3085 5.08901 67.9297 4.40341 68.7176 3.92614C69.5093 3.44508 70.4089 3.20455 71.4165 3.20455C72.4203 3.20455 73.3161 3.44508 74.104 3.92614C74.8956 4.40341 75.5188 5.08901 75.9733 5.98295C76.4278 6.87311 76.6551 7.93939 76.6551 9.18182ZM74.9165 9.18182C74.9165 8.23485 74.7631 7.4375 74.4563 6.78977C74.1532 6.13826 73.7366 5.64583 73.2063 5.3125C72.6797 4.97538 72.0831 4.80682 71.4165 4.80682C70.746 4.80682 70.1475 4.97538 69.621 5.3125C69.0945 5.64583 68.6778 6.13826 68.371 6.78977C68.068 7.4375 67.9165 8.23485 67.9165 9.18182C67.9165 10.1288 68.068 10.928 68.371 11.5795C68.6778 12.2273 69.0945 12.7197 69.621 13.0568C70.1475 13.3902 70.746 13.5568 71.4165 13.5568C72.0831 13.5568 72.6797 13.3902 73.2063 13.0568C73.7366 12.7197 74.1532 12.2273 74.4563 11.5795C74.7631 10.928 74.9165 10.1288 74.9165 9.18182ZM78.644 15V3.36364H80.3997V13.4886H85.6724V15H78.644ZM93.2653 3.36364V15H91.5097V3.36364H93.2653ZM105.014 3.36364V15H103.401L97.4858 6.46591H97.3778V15H95.6222V3.36364H97.2472L103.168 11.9091H103.276V3.36364H105.014ZM110.836 4.875V3.36364H119.841V4.875H116.211V15H114.461V4.875H110.836ZM121.632 15V3.36364H123.387V8.42045H129.188V3.36364H130.95V15H129.188V9.92614H123.387V15H121.632ZM133.307 15V3.36364H140.602V4.875H135.062V8.42045H140.221V9.92614H135.062V13.4886H140.67V15H133.307ZM150.549 15H146.782V3.36364H150.668C151.808 3.36364 152.787 3.59659 153.605 4.0625C154.424 4.52462 155.05 5.18939 155.486 6.05682C155.925 6.92045 156.145 7.95644 156.145 9.16477C156.145 10.3769 155.924 11.4186 155.48 12.2898C155.041 13.161 154.405 13.8314 153.571 14.3011C152.738 14.767 151.73 15 150.549 15ZM148.537 13.4659H150.452C151.338 13.4659 152.075 13.2992 152.662 12.9659C153.249 12.6288 153.689 12.142 153.98 11.5057C154.272 10.8655 154.418 10.0852 154.418 9.16477C154.418 8.25189 154.272 7.47727 153.98 6.84091C153.693 6.20455 153.263 5.72159 152.691 5.39205C152.119 5.0625 151.408 4.89773 150.56 4.89773H148.537V13.4659ZM158.533 15H156.67L160.857 3.36364H162.886L167.073 15H165.209L161.92 5.47727H161.829L158.533 15ZM158.846 10.4432H164.891V11.9205H158.846V10.4432ZM168.553 15V3.36364H172.701C173.603 3.36364 174.351 3.51894 174.945 3.82955C175.544 4.14015 175.991 4.57008 176.286 5.11932C176.582 5.66477 176.73 6.29545 176.73 7.01136C176.73 7.72348 176.58 8.35038 176.281 8.89205C175.985 9.42992 175.538 9.84848 174.94 10.1477C174.345 10.447 173.597 10.5966 172.695 10.5966H169.553V9.08523H172.536C173.105 9.08523 173.567 9.00379 173.923 8.84091C174.283 8.67803 174.546 8.44129 174.712 8.13068C174.879 7.82008 174.962 7.44697 174.962 7.01136C174.962 6.57197 174.877 6.19129 174.707 5.86932C174.54 5.54735 174.277 5.30114 173.917 5.13068C173.561 4.95644 173.093 4.86932 172.514 4.86932H170.309V15H168.553ZM174.298 9.75L177.173 15H175.173L172.355 9.75H174.298ZM178.666 15V3.36364H180.422V8.92045H180.564L185.444 3.36364H187.655L182.961 8.60227L187.672 15H185.558L181.797 9.80114L180.422 11.3807V15H178.666Z" fill="black"/>
<path d="M7.94318 32.5455V50H5.82955V34.7614H5.72727L1.46591 37.5909V35.4432L5.82955 32.5455H7.94318ZM12.9659 47.6136L12.8295 48.5341C12.733 49.1818 12.5852 49.875 12.3864 50.6136C12.1932 51.3523 11.9915 52.0483 11.7812 52.7017C11.571 53.3551 11.3977 53.875 11.2614 54.2614H9.72727C9.80114 53.8977 9.89773 53.4176 10.017 52.821C10.1364 52.2244 10.2557 51.5568 10.375 50.8182C10.5 50.0852 10.6023 49.3352 10.6818 48.5682L10.7841 47.6136H12.9659ZM18.7088 32.5455V50H16.5952V34.7614H16.4929L12.2315 37.5909V35.4432L16.5952 32.5455H18.7088ZM27.2855 32.3068C28.0014 32.3125 28.7173 32.4489 29.4332 32.7159C30.1491 32.983 30.8026 33.4261 31.3935 34.0455C31.9844 34.6591 32.4588 35.4972 32.8168 36.5597C33.1747 37.6222 33.3537 38.9545 33.3537 40.5568C33.3537 42.108 33.206 43.4858 32.9105 44.6903C32.6207 45.8892 32.2003 46.9006 31.6491 47.7244C31.1037 48.5483 30.4389 49.1733 29.6548 49.5994C28.8764 50.0256 27.9957 50.2386 27.0128 50.2386C26.0355 50.2386 25.1634 50.0455 24.3963 49.6591C23.6349 49.267 23.0099 48.7244 22.5213 48.0312C22.0384 47.3324 21.7287 46.5227 21.5923 45.6023H23.6719C23.8594 46.4034 24.2315 47.0653 24.7884 47.5881C25.3509 48.1051 26.0923 48.3636 27.0128 48.3636C28.3594 48.3636 29.4219 47.7756 30.2003 46.5994C30.9844 45.4233 31.3764 43.7614 31.3764 41.6136H31.2401C30.9219 42.0909 30.544 42.5028 30.1065 42.8494C29.669 43.196 29.1832 43.4631 28.6491 43.6506C28.1151 43.8381 27.5469 43.9318 26.9446 43.9318C25.9446 43.9318 25.027 43.6847 24.1918 43.1903C23.3622 42.6903 22.6974 42.0057 22.1974 41.1364C21.7031 40.2614 21.456 39.2614 21.456 38.1364C21.456 37.0682 21.6946 36.0909 22.1719 35.2045C22.6548 34.3125 23.331 33.6023 24.2003 33.0739C25.0753 32.5455 26.1037 32.2898 27.2855 32.3068ZM27.2855 34.1818C26.5696 34.1818 25.9247 34.3608 25.3509 34.7188C24.7827 35.071 24.331 35.5483 23.9957 36.1506C23.6662 36.7472 23.5014 37.4091 23.5014 38.1364C23.5014 38.8636 23.6605 39.5256 23.9787 40.1222C24.3026 40.7131 24.7429 41.1847 25.2997 41.5369C25.8622 41.8835 26.5014 42.0568 27.2173 42.0568C27.7571 42.0568 28.2599 41.9517 28.7259 41.7415C29.1918 41.5256 29.598 41.233 29.9446 40.8636C30.2969 40.4886 30.5724 40.0653 30.7713 39.5938C30.9702 39.1165 31.0696 38.6193 31.0696 38.1023C31.0696 37.4205 30.9048 36.7812 30.5753 36.1847C30.2514 35.5881 29.8026 35.1051 29.2287 34.7358C28.6605 34.3665 28.0128 34.1818 27.2855 34.1818ZM40.2621 32.3068C40.978 32.3125 41.6939 32.4489 42.4098 32.7159C43.1257 32.983 43.7791 33.4261 44.37 34.0455C44.9609 34.6591 45.4354 35.4972 45.7933 36.5597C46.1513 37.6222 46.3303 38.9545 46.3303 40.5568C46.3303 42.108 46.1825 43.4858 45.8871 44.6903C45.5973 45.8892 45.1768 46.9006 44.6257 47.7244C44.0803 48.5483 43.4155 49.1733 42.6314 49.5994C41.853 50.0256 40.9723 50.2386 39.9893 50.2386C39.0121 50.2386 38.1399 50.0455 37.3729 49.6591C36.6115 49.267 35.9865 48.7244 35.4979 48.0312C35.0149 47.3324 34.7053 46.5227 34.5689 45.6023H36.6484C36.8359 46.4034 37.2081 47.0653 37.7649 47.5881C38.3274 48.1051 39.0689 48.3636 39.9893 48.3636C41.3359 48.3636 42.3984 47.7756 43.1768 46.5994C43.9609 45.4233 44.353 43.7614 44.353 41.6136H44.2166C43.8984 42.0909 43.5206 42.5028 43.0831 42.8494C42.6456 43.196 42.1598 43.4631 41.6257 43.6506C41.0916 43.8381 40.5234 43.9318 39.9212 43.9318C38.9212 43.9318 38.0036 43.6847 37.1683 43.1903C36.3388 42.6903 35.674 42.0057 35.174 41.1364C34.6797 40.2614 34.4325 39.2614 34.4325 38.1364C34.4325 37.0682 34.6712 36.0909 35.1484 35.2045C35.6314 34.3125 36.3075 33.6023 37.1768 33.0739C38.0518 32.5455 39.0803 32.2898 40.2621 32.3068ZM40.2621 34.1818C39.5462 34.1818 38.9013 34.3608 38.3274 34.7188C37.7592 35.071 37.3075 35.5483 36.9723 36.1506C36.6428 36.7472 36.478 37.4091 36.478 38.1364C36.478 38.8636 36.6371 39.5256 36.9553 40.1222C37.2791 40.7131 37.7195 41.1847 38.2763 41.5369C38.8388 41.8835 39.478 42.0568 40.1939 42.0568C40.7337 42.0568 41.2365 41.9517 41.7024 41.7415C42.1683 41.5256 42.5746 41.233 42.9212 40.8636C43.2734 40.4886 43.549 40.0653 43.7479 39.5938C43.9467 39.1165 44.0462 38.6193 44.0462 38.1023C44.0462 37.4205 43.8814 36.7812 43.5518 36.1847C43.228 35.5881 42.7791 35.1051 42.2053 34.7358C41.6371 34.3665 40.9893 34.1818 40.2621 34.1818ZM54.8523 32.5455V50H52.7386V32.5455H54.8523ZM70.9311 32.5455V50H68.8857L59.3743 36.2955H59.2038V50H57.0902V32.5455H59.1357L68.6811 46.2841H68.8516V32.5455H70.9311ZM73.1605 50V32.5455H79.0582C80.4219 32.5455 81.5412 32.7784 82.4162 33.2443C83.2912 33.7045 83.9389 34.3381 84.3594 35.1449C84.7798 35.9517 84.9901 36.8693 84.9901 37.8977C84.9901 38.9261 84.7798 39.8381 84.3594 40.6335C83.9389 41.429 83.294 42.054 82.4247 42.5085C81.5554 42.9574 80.4446 43.1818 79.0923 43.1818H74.3196V41.2727H79.0241C79.956 41.2727 80.706 41.1364 81.2741 40.8636C81.848 40.5909 82.2628 40.2045 82.5185 39.7045C82.7798 39.1989 82.9105 38.5966 82.9105 37.8977C82.9105 37.1989 82.7798 36.5881 82.5185 36.0653C82.2571 35.5426 81.8395 35.1392 81.2656 34.8551C80.6918 34.5653 79.9332 34.4205 78.9901 34.4205H75.2741V50H73.1605ZM81.3764 42.1591L85.6719 50H83.2173L78.9901 42.1591H81.3764Z" fill="black"/>
</svg>
