<svg width="219" height="56" viewBox="0 0 219 56" fill="none" xmlns="http://www.w3.org/2000/svg">
<path d="M3.55682 15L0.329545 3.36364H2.17614L4.44318 12.375H4.55114L6.90909 3.36364H8.73864L11.0966 12.3807H11.2045L13.4659 3.36364H15.3182L12.0852 15H10.3182L7.86932 6.28409H7.77841L5.32955 15H3.55682ZM16.719 15V3.36364H24.0145V4.875H18.4747V8.42045H23.6338V9.92614H18.4747V13.4886H24.0827V15H16.719ZM30.194 15V3.36364H34.3418C35.2433 3.36364 35.9914 3.51894 36.5861 3.82955C37.1846 4.14015 37.6315 4.57008 37.927 5.11932C38.2224 5.66477 38.3702 6.29545 38.3702 7.01136C38.3702 7.72348 38.2205 8.35038 37.9213 8.89205C37.6259 9.42992 37.1789 9.84848 36.5804 10.1477C35.9857 10.447 35.2376 10.5966 34.3361 10.5966H31.194V9.08523H34.177C34.7452 9.08523 35.2073 9.00379 35.5634 8.84091C35.9232 8.67803 36.1865 8.44129 36.3531 8.13068C36.5198 7.82008 36.6031 7.44697 36.6031 7.01136C36.6031 6.57197 36.5179 6.19129 36.3474 5.86932C36.1808 5.54735 35.9175 5.30114 35.5577 5.13068C35.2016 4.95644 34.7338 4.86932 34.1543 4.86932H31.9497V15H30.194ZM35.9384 9.75L38.8134 15H36.8134L33.9952 9.75H35.9384ZM40.3065 15V3.36364H47.602V4.875H42.0622V8.42045H47.2213V9.92614H42.0622V13.4886H47.6702V15H40.3065ZM49.7472 3.36364H51.8778L55.5824 12.4091H55.7188L59.4233 3.36364H61.554V15H59.8835V6.57955H59.7756L56.3438 14.983H54.9574L51.5256 6.57386H51.4176V15H49.7472V3.36364ZM63.9065 15V3.36364H71.202V4.875H65.6622V8.42045H70.8213V9.92614H65.6622V13.4886H71.2702V15H63.9065ZM73.3472 3.36364H75.4778L79.1824 12.4091H79.3187L83.0233 3.36364H85.154V15H83.4835V6.57955H83.3756L79.9437 14.983H78.5574L75.1256 6.57386H75.0176V15H73.3472V3.36364ZM87.5065 15V3.36364H91.7679C92.5937 3.36364 93.2774 3.5 93.819 3.77273C94.3607 4.04167 94.766 4.4072 95.0349 4.86932C95.3039 5.32765 95.4384 5.8447 95.4384 6.42045C95.4384 6.9053 95.3493 7.31439 95.1713 7.64773C94.9933 7.97727 94.7546 8.24242 94.4554 8.44318C94.1599 8.64015 93.8342 8.78409 93.4781 8.875V8.98864C93.8645 9.00758 94.2414 9.13258 94.6088 9.36364C94.98 9.59091 95.2868 9.91477 95.5293 10.3352C95.7717 10.7557 95.8929 11.267 95.8929 11.8693C95.8929 12.464 95.7527 12.9981 95.4724 13.4716C95.1959 13.9413 94.7679 14.3144 94.1884 14.5909C93.6088 14.8636 92.8683 15 91.9668 15H87.5065ZM89.2622 13.4943H91.7963C92.6372 13.4943 93.2395 13.3314 93.6031 13.0057C93.9668 12.6799 94.1486 12.2727 94.1486 11.7841C94.1486 11.4167 94.0558 11.0795 93.8702 10.7727C93.6846 10.4659 93.4194 10.2216 93.0747 10.0398C92.7338 9.85795 92.3285 9.76705 91.8588 9.76705H89.2622V13.4943ZM89.2622 8.39773H91.6145C92.0084 8.39773 92.3626 8.32197 92.677 8.17045C92.9952 8.01894 93.2471 7.80682 93.4327 7.53409C93.6221 7.25758 93.7168 6.93182 93.7168 6.55682C93.7168 6.07576 93.5482 5.67235 93.2111 5.34659C92.874 5.02083 92.3569 4.85795 91.6599 4.85795H89.2622V8.39773ZM97.7753 15V3.36364H105.071V4.875H99.531V8.42045H104.69V9.92614H99.531V13.4886H105.139V15H97.7753ZM107.216 15V3.36364H111.364C112.265 3.36364 113.013 3.51894 113.608 3.82955C114.206 4.14015 114.653 4.57008 114.949 5.11932C115.244 5.66477 115.392 6.29545 115.392 7.01136C115.392 7.72348 115.242 8.35038 114.943 8.89205C114.648 9.42992 114.201 9.84848 113.602 10.1477C113.008 10.447 112.259 10.5966 111.358 10.5966H108.216V9.08523H111.199C111.767 9.08523 112.229 9.00379 112.585 8.84091C112.945 8.67803 113.208 8.44129 113.375 8.13068C113.542 7.82008 113.625 7.44697 113.625 7.01136C113.625 6.57197 113.54 6.19129 113.369 5.86932C113.203 5.54735 112.939 5.30114 112.58 5.13068C112.223 4.95644 111.756 4.86932 111.176 4.86932H108.972V15H107.216ZM112.96 9.75L115.835 15H113.835L111.017 9.75H112.96ZM125.13 15H121.363V3.36364H125.249C126.389 3.36364 127.368 3.59659 128.187 4.0625C129.005 4.52462 129.632 5.18939 130.067 6.05682C130.507 6.92045 130.726 7.95644 130.726 9.16477C130.726 10.3769 130.505 11.4186 130.062 12.2898C129.622 13.161 128.986 13.8314 128.153 14.3011C127.319 14.767 126.312 15 125.13 15ZM123.118 13.4659H125.033C125.92 13.4659 126.656 13.2992 127.243 12.9659C127.831 12.6288 128.27 12.142 128.562 11.5057C128.853 10.8655 128.999 10.0852 128.999 9.16477C128.999 8.25189 128.853 7.47727 128.562 6.84091C128.274 6.20455 127.844 5.72159 127.272 5.39205C126.7 5.0625 125.99 4.89773 125.141 4.89773H123.118V13.4659ZM132.71 15V3.36364H136.857C137.759 3.36364 138.507 3.51894 139.102 3.82955C139.7 4.14015 140.147 4.57008 140.443 5.11932C140.738 5.66477 140.886 6.29545 140.886 7.01136C140.886 7.72348 140.736 8.35038 140.437 8.89205C140.141 9.42992 139.695 9.84848 139.096 10.1477C138.501 10.447 137.753 10.5966 136.852 10.5966H133.71V9.08523H136.693C137.261 9.08523 137.723 9.00379 138.079 8.84091C138.439 8.67803 138.702 8.44129 138.869 8.13068C139.035 7.82008 139.119 7.44697 139.119 7.01136C139.119 6.57197 139.034 6.19129 138.863 5.86932C138.696 5.54735 138.433 5.30114 138.073 5.13068C137.717 4.95644 137.249 4.86932 136.67 4.86932H134.465V15H132.71ZM138.454 9.75L141.329 15H139.329L136.511 9.75H138.454ZM142.822 15V3.36364H150.118V4.875H144.578V8.42045H149.737V9.92614H144.578V13.4886H150.186V15H142.822ZM153.246 15H151.382L155.57 3.36364H157.598L161.786 15H159.922L156.632 5.47727H156.541L153.246 15ZM153.558 10.4432H159.604V11.9205H153.558V10.4432ZM163.266 3.36364H165.397L169.101 12.4091H169.238L172.942 3.36364H175.073V15H173.402V6.57955H173.294L169.863 14.983H168.476L165.044 6.57386H164.936V15H163.266V3.36364ZM178.442 3.36364L181.681 12.8409H181.812L185.05 3.36364H186.948L182.761 15H180.732L176.545 3.36364H178.442ZM190.184 3.36364V15H188.428V3.36364H190.184ZM192.541 15V3.36364H194.297V13.4886H199.569V15H192.541ZM201.372 15V3.36364H203.128V13.4886H208.401V15H201.372ZM210.203 15V3.36364H217.499V4.875H211.959V8.42045H217.118V9.92614H211.959V13.4886H217.567V15H210.203Z" fill="black"/>
<path d="M139.943 32.5455V50H137.83V34.7614H137.727L133.466 37.5909V35.4432L137.83 32.5455H139.943ZM144.966 47.6136L144.83 48.5341C144.733 49.1818 144.585 49.875 144.386 50.6136C144.193 51.3523 143.991 52.0483 143.781 52.7017C143.571 53.3551 143.398 53.875 143.261 54.2614H141.727C141.801 53.8977 141.898 53.4176 142.017 52.821C142.136 52.2244 142.256 51.5568 142.375 50.8182C142.5 50.0852 142.602 49.3352 142.682 48.5682L142.784 47.6136H144.966ZM150.709 32.5455V50H148.595V34.7614H148.493L144.232 37.5909V35.4432L148.595 32.5455H150.709ZM159.286 32.3068C160.001 32.3125 160.717 32.4489 161.433 32.7159C162.149 32.983 162.803 33.4261 163.393 34.0455C163.984 34.6591 164.459 35.4972 164.817 36.5597C165.175 37.6222 165.354 38.9545 165.354 40.5568C165.354 42.108 165.206 43.4858 164.911 44.6903C164.621 45.8892 164.2 46.9006 163.649 47.7244C163.104 48.5483 162.439 49.1733 161.655 49.5994C160.876 50.0256 159.996 50.2386 159.013 50.2386C158.036 50.2386 157.163 50.0455 156.396 49.6591C155.635 49.267 155.01 48.7244 154.521 48.0312C154.038 47.3324 153.729 46.5227 153.592 45.6023H155.672C155.859 46.4034 156.232 47.0653 156.788 47.5881C157.351 48.1051 158.092 48.3636 159.013 48.3636C160.359 48.3636 161.422 47.7756 162.2 46.5994C162.984 45.4233 163.376 43.7614 163.376 41.6136H163.24C162.922 42.0909 162.544 42.5028 162.107 42.8494C161.669 43.196 161.183 43.4631 160.649 43.6506C160.115 43.8381 159.547 43.9318 158.945 43.9318C157.945 43.9318 157.027 43.6847 156.192 43.1903C155.362 42.6903 154.697 42.0057 154.197 41.1364C153.703 40.2614 153.456 39.2614 153.456 38.1364C153.456 37.0682 153.695 36.0909 154.172 35.2045C154.655 34.3125 155.331 33.6023 156.2 33.0739C157.075 32.5455 158.104 32.2898 159.286 32.3068ZM159.286 34.1818C158.57 34.1818 157.925 34.3608 157.351 34.7188C156.783 35.071 156.331 35.5483 155.996 36.1506C155.666 36.7472 155.501 37.4091 155.501 38.1364C155.501 38.8636 155.661 39.5256 155.979 40.1222C156.303 40.7131 156.743 41.1847 157.3 41.5369C157.862 41.8835 158.501 42.0568 159.217 42.0568C159.757 42.0568 160.26 41.9517 160.726 41.7415C161.192 41.5256 161.598 41.233 161.945 40.8636C162.297 40.4886 162.572 40.0653 162.771 39.5938C162.97 39.1165 163.07 38.6193 163.07 38.1023C163.07 37.4205 162.905 36.7812 162.575 36.1847C162.251 35.5881 161.803 35.1051 161.229 34.7358C160.661 34.3665 160.013 34.1818 159.286 34.1818ZM172.262 32.3068C172.978 32.3125 173.694 32.4489 174.41 32.7159C175.126 32.983 175.779 33.4261 176.37 34.0455C176.961 34.6591 177.435 35.4972 177.793 36.5597C178.151 37.6222 178.33 38.9545 178.33 40.5568C178.33 42.108 178.183 43.4858 177.887 44.6903C177.597 45.8892 177.177 46.9006 176.626 47.7244C176.08 48.5483 175.415 49.1733 174.631 49.5994C173.853 50.0256 172.972 50.2386 171.989 50.2386C171.012 50.2386 170.14 50.0455 169.373 49.6591C168.612 49.267 167.987 48.7244 167.498 48.0312C167.015 47.3324 166.705 46.5227 166.569 45.6023H168.648C168.836 46.4034 169.208 47.0653 169.765 47.5881C170.327 48.1051 171.069 48.3636 171.989 48.3636C173.336 48.3636 174.398 47.7756 175.177 46.5994C175.961 45.4233 176.353 43.7614 176.353 41.6136H176.217C175.898 42.0909 175.521 42.5028 175.083 42.8494C174.646 43.196 174.16 43.4631 173.626 43.6506C173.092 43.8381 172.523 43.9318 171.921 43.9318C170.921 43.9318 170.004 43.6847 169.168 43.1903C168.339 42.6903 167.674 42.0057 167.174 41.1364C166.68 40.2614 166.433 39.2614 166.433 38.1364C166.433 37.0682 166.671 36.0909 167.148 35.2045C167.631 34.3125 168.308 33.6023 169.177 33.0739C170.052 32.5455 171.08 32.2898 172.262 32.3068ZM172.262 34.1818C171.546 34.1818 170.901 34.3608 170.327 34.7188C169.759 35.071 169.308 35.5483 168.972 36.1506C168.643 36.7472 168.478 37.4091 168.478 38.1364C168.478 38.8636 168.637 39.5256 168.955 40.1222C169.279 40.7131 169.719 41.1847 170.276 41.5369C170.839 41.8835 171.478 42.0568 172.194 42.0568C172.734 42.0568 173.237 41.9517 173.702 41.7415C174.168 41.5256 174.575 41.233 174.921 40.8636C175.273 40.4886 175.549 40.0653 175.748 39.5938C175.947 39.1165 176.046 38.6193 176.046 38.1023C176.046 37.4205 175.881 36.7812 175.552 36.1847C175.228 35.5881 174.779 35.1051 174.205 34.7358C173.637 34.3665 172.989 34.1818 172.262 34.1818ZM186.852 32.5455V50H184.739V32.5455H186.852ZM202.931 32.5455V50H200.886L191.374 36.2955H191.204V50H189.09V32.5455H191.136L200.681 46.2841H200.852V32.5455H202.931ZM205.161 50V32.5455H211.058C212.422 32.5455 213.541 32.7784 214.416 33.2443C215.291 33.7045 215.939 34.3381 216.359 35.1449C216.78 35.9517 216.99 36.8693 216.99 37.8977C216.99 38.9261 216.78 39.8381 216.359 40.6335C215.939 41.429 215.294 42.054 214.425 42.5085C213.555 42.9574 212.445 43.1818 211.092 43.1818H206.32V41.2727H211.024C211.956 41.2727 212.706 41.1364 213.274 40.8636C213.848 40.5909 214.263 40.2045 214.518 39.7045C214.78 39.1989 214.911 38.5966 214.911 37.8977C214.911 37.1989 214.78 36.5881 214.518 36.0653C214.257 35.5426 213.839 35.1392 213.266 34.8551C212.692 34.5653 211.933 34.4205 210.99 34.4205H207.274V50H205.161ZM213.376 42.1591L217.672 50H215.217L210.99 42.1591H213.376Z" fill="black"/>
</svg>
