<svg width="134" height="136" viewBox="0 0 134 136" fill="none" xmlns="http://www.w3.org/2000/svg">
<g clip-path="url(#clip0_717_58)">
<path d="M92.0854 24.3174H89.0775L82.6707 72.9953L78.5184 41.4846L50.2169 53.3033L47.6231 72.9953L45.2997 55.3564L24.4689 64.0579L28.9319 106.536V106.571H61.3167L65.1469 77.4984L68.9772 106.571H101.293V106.559L101.356 106.565L110 24.3174H92.0854Z" fill="black"/>
<path d="M38.2603 34.4969L37.1445 24.3174H76.31L76.8161 28.3892L63.8472 30.4424L65.7048 42.7729L56.526 46.4421L54.5476 31.9204L38.2603 34.4969Z" fill="black"/>
<path d="M77.1434 31.0176L67.5332 32.7199L68.5972 41.7435L78.0176 37.6774L77.1434 31.0176Z" fill="black"/>
<path d="M51.7809 35.0318L34.8955 37.7636L33.567 24.3174H20L23.7728 60.2104L53.5638 47.7706L51.7809 35.0318ZM36.132 46.6031L35.948 44.2509L47.1052 41.8297C47.1052 41.8297 47.2145 42.9684 47.3238 42.9684C47.4331 42.9684 36.1263 46.6031 36.1263 46.6031H36.132Z" fill="black"/>
</g>
<path d="M46.4805 49.4352C46.4805 51.7317 48.1815 52.4689 50.4082 52.4141C54.5472 52.3123 54.2257 47.6555 54.2257 44.6689" stroke="#9E9E9E" stroke-width="2" stroke-linecap="round"/>
<path d="M92.1602 96.502C93.5815 96.5536 94.7719 96.9557 96.0989 97.4618C98.9001 98.5301 101.709 99.5732 104.539 100.562C106.114 101.112 107.664 101.736 109.239 102.261" stroke="#9E9E9E" stroke-width="2" stroke-linecap="round"/>
<path d="M46.9062 44.1943C46.9807 44.641 47.2028 44.7539 47.5266 44.9698" stroke="#9E9E9E" stroke-width="2" stroke-linecap="round"/>
<path d="M49.0781 42.799C49.3212 42.799 49.4416 42.7505 49.5434 42.9541" stroke="#9E9E9E" stroke-width="2" stroke-linecap="round"/>
<path d="M24.0406 79.8198C25.5152 82.8467 26.7133 86.012 28.3986 88.9331C28.6729 89.4085 29.2922 90.2913 28.189 89.8268C26.6866 89.1942 25.424 87.9763 24.1068 87.0465C23.8716 86.8805 22.375 85.6341 21.8781 85.7997C21.4345 85.9476 23.5284 89.938 23.533 89.9481C25.425 94.0853 27.0626 98.3176 28.4096 102.658" stroke="#9E9E9E" stroke-width="2" stroke-linecap="round"/>
<path d="M60.5524 21.396C60.0512 23.6514 60.6159 26.2806 60.8626 28.5303C61.1219 30.895 61.4794 33.2591 61.6725 35.6301C61.8397 37.681 61.9562 39.6392 62.7237 41.5581" stroke="#9E9E9E" stroke-width="2" stroke-linecap="round"/>
<path d="M41.3203 20C42.3229 20.6602 43.3558 20.8464 44.5514 20.9047C47.0558 21.0269 49.5838 21.0095 52.0907 21.0512C58.7861 21.1625 65.4875 21.0857 72.1838 21.0857" stroke="#9E9E9E" stroke-width="2" stroke-linecap="round"/>
<path d="M97.7188 88.3594C100.569 95.6961 102.867 103.142 104.67 110.801" stroke="#9E9E9E" stroke-width="2" stroke-linecap="round"/>
<path d="M94.7422 103.254C97.5466 101.644 100.814 100.834 103.723 99.3924C107.058 97.7389 110.368 96.1404 113.807 94.7144" stroke="#9E9E9E" stroke-width="2" stroke-linecap="round"/>
<path d="M107.847 91.3384C106.94 92.6545 106.38 94.2651 105.806 95.7295C104.219 99.7764 102.838 103.897 101.338 107.976C100.5 110.253 99.6897 113.303 98.1821 115.313C97.7183 115.932 97.8004 115.189 97.7188 114.971" stroke="#9E9E9E" stroke-width="2" stroke-linecap="round"/>
<defs>
<clipPath id="clip0_717_58">
<rect width="90" height="82.2532" fill="white" transform="translate(20 24.3174)"/>
</clipPath>
</defs>
</svg>
