<svg width="1360" height="765" viewBox="0 0 1360 765" fill="none" xmlns="http://www.w3.org/2000/svg">
<path fill-rule="evenodd" clip-rule="evenodd" d="M1360 0H0V765H1360V0ZM1064.71 26.3097C1066.18 22.0123 1070.22 19.125 1074.76 19.125H1330.96C1336.83 19.125 1341.58 23.882 1341.58 29.75V735.941C1341.58 741.809 1336.83 746.566 1330.96 746.566L578.535 746.583C571.374 746.583 566.264 739.645 568.387 732.807L682.459 365.463L545.29 732.767C542.188 741.076 534.252 746.583 525.383 746.583H28.3333C22.4653 746.583 17.7083 741.826 17.7083 735.958V168.09C17.7083 162.489 22.0557 157.85 27.6445 157.487L403.693 133.056C411.289 132.562 416.924 139.982 414.411 147.167L293.266 493.472L442.403 131.952C443.944 128.217 447.47 125.679 451.501 125.403L994.58 88.331C1001.82 87.8364 1007.42 94.5943 1005.58 101.62L897.423 515.12L1064.71 26.3097Z" fill="white"/>
</svg>
